<svg width="97" height="96" xmlns="http://www.w3.org/2000/svg" xmlns:xlink="http://www.w3.org/1999/xlink" xml:space="preserve" overflow="hidden"><g transform="translate(-789 -312)"><g><g><g><g><path d="M813 394 813 326 838 326 838 347 863 347 863 394 813 394ZM844 328.5 856.5 341 844 341 844 328.5ZM844 320 807 320 807 400 869 400 869 342 844 320Z" fill="#000000" fill-rule="nonzero" fill-opacity="1"/><path d="M819 357 857 357 857 361 819 361Z" fill="#000000" fill-rule="nonzero" fill-opacity="1"/><path d="M819 349 832 349 832 353 819 353Z" fill="#000000" fill-rule="nonzero" fill-opacity="1"/><path d="M819 365 857 365 857 369 819 369Z" fill="#000000" fill-rule="nonzero" fill-opacity="1"/><path d="M819 373 857 373 857 377 819 377Z" fill="#000000" fill-rule="nonzero" fill-opacity="1"/><path d="M819 381 857 381 857 385 819 385Z" fill="#000000" fill-rule="nonzero" fill-opacity="1"/></g></g></g></g></g></svg>